<?xml version="1.0" standalone="no"?>
<!DOCTYPE svg PUBLIC "-//W3C//DTD SVG 20010904//EN"
 "http://www.w3.org/TR/2001/REC-SVG-20010904/DTD/svg10.dtd">
<svg version="1.0" xmlns="http://www.w3.org/2000/svg"
 width="1000.000000pt" height="1000.000000pt" viewBox="0 0 1000.000000 1000.000000"
 preserveAspectRatio="xMidYMid meet">
<metadata>
Created by potrace 1.16, written by Peter Selinger 2001-2019
</metadata>
<g transform="translate(0.000000,1000.000000) scale(0.100000,-0.100000)"
fill="#BA3020" stroke="none">
<path fill="#BA3020" stroke="none" d="M4645 9453 c-495 -32 -1155 -214 -1616
-444 -485 -242 -856 -511 -1206 -873 -433 -448 -733 -913 -971 -1501 -418
-1039 -411 -2327 21 -3345 190 -449 432 -839 748 -1205 199 -231 541 -537 799
-717 208 -144 495 -310 701 -404 461 -210 880 -332 1354 -396 151 -20 211 -23
545 -23 335 0 393 3 545 23 1324 179 2532 954 3235 2077 87 140 250 454 323
625 299 703 400 1488 297 2311 -127 1014 -583 1914 -1346 2659 -704 686 -1638
1109 -2663 1205 -149 14 -606 19 -766 8z"/>
<path fill="#ffffff" stroke="none" d="M5380 9185 c210 -18 279 -28 470 -66
919 -184 1736 -667 2340 -1384 247 -294 398 -520 561 -840 242 -474 377 -943
435 -1510 21 -210 21 -607 -1 -810 -45 -423 -154 -856 -304 -1210 -66 -153
-242 -495 -262 -508 -13 -8 -31 3 -84 48 -197 167 -385 290 -770 503 -217 120
-930 482 -949 482 -4 0 -5 -127 -4 -282 l3 -283 40 -3 c31 -2 53 5 97 31 75
46 110 57 177 57 97 -1 195 -63 244 -155 30 -58 30 -184 0 -240 -51 -95 -147
-154 -248 -155 -58 0 -110 19 -205 75 -14 9 -43 14 -65 13 l-40 -3 -5 -355
c-6 -402 -4 -395 -89 -455 l-43 -30 -353 -3 -354 -3 -5 -27 c-8 -35 5 -78 38
-126 130 -192 -2 -437 -233 -436 -33 0 -73 8 -97 19 -174 79 -223 286 -103
440 22 27 34 81 24 110 -6 21 -10 21 -346 21 -284 0 -346 3 -377 15 -47 20
-79 50 -103 97 -18 34 -19 63 -19 387 l0 351 25 6 c36 9 72 -2 137 -42 119
-72 242 -64 338 22 65 59 85 105 85 199 0 63 -5 89 -22 121 -26 49 -89 108
-140 130 -57 24 -160 23 -208 -3 -140 -74 -142 -74 -179 -67 l-37 6 3 363 3
363 31 39 c62 78 64 78 459 78 l350 0 3 -50 c2 -42 -2 -58 -24 -90 -47 -69
-64 -116 -64 -182 0 -160 148 -290 303 -267 209 33 304 258 183 433 -29 42
-42 96 -32 135 l6 26 290 2 290 3 -89 182 c-49 100 -128 240 -175 313 -47 72
-86 134 -86 138 0 4 18 49 41 101 64 149 106 332 124 542 7 75 8 77 50 112 89
75 167 229 206 408 27 123 61 406 56 456 -5 51 -41 101 -91 128 -20 11 -36 26
-36 35 0 8 13 94 29 190 16 96 34 225 40 286 15 147 15 511 1 599 -34 216
-120 399 -250 531 -70 72 -118 104 -205 139 -56 22 -87 44 -160 112 -191 181
-381 266 -685 309 -138 20 -438 14 -620 -11 -437 -60 -823 -219 -1052 -434
-86 -80 -185 -227 -194 -288 -15 -104 19 -201 93 -262 105 -87 252 -79 353 19
97 94 106 233 24 352 -22 31 -28 52 -29 92 l0 51 340 3 c187 1 350 0 362 -3
30 -7 90 -61 111 -99 15 -27 18 -76 22 -376 l5 -345 41 1 c27 0 59 11 90 30
72 43 102 52 169 53 72 1 144 -29 192 -80 106 -112 96 -299 -20 -393 -106 -84
-217 -88 -337 -11 -40 26 -65 35 -97 35 l-43 0 0 -338 c0 -331 0 -339 -22
-382 -13 -24 -40 -58 -61 -74 l-39 -31 -349 -3 -350 -3 -9 -24 c-10 -26 4 -91
25 -115 61 -72 79 -207 37 -286 -55 -107 -132 -154 -249 -154 -79 0 -122 16
-182 66 -86 72 -113 222 -57 319 62 106 68 124 62 160 l-7 35 -129 0 c-128 0
-130 0 -130 -22 0 -48 120 -499 145 -549 8 -15 33 -43 55 -61 40 -35 40 -35
40 -106 0 -158 48 -403 111 -562 37 -92 139 -256 211 -335 l45 -50 7 -97 c7
-91 6 -100 -18 -146 -24 -47 -102 -322 -126 -442 -6 -30 -14 -60 -18 -66 -4
-6 -131 -52 -282 -103 -285 -96 -817 -302 -1000 -388 -185 -87 -367 -203 -474
-303 -73 -67 -187 -207 -267 -328 -81 -121 -108 -154 -121 -146 -15 10 -142
205 -220 339 -296 510 -461 1008 -534 1620 -26 212 -26 748 -1 955 62 511 186
931 408 1380 188 382 367 645 683 1005 300 341 758 690 1195 910 449 225 1072
396 1566 428 148 10 557 5 705 -8z"/>
</g>
</svg>
